<svg width="115" height="60" viewBox="0 0 115 60" xmlns="http://www.w3.org/2000/svg"><title>ic-rupay</title><g fill="none" fill-rule="evenodd"><path d="M55.954 26.246c-.65 1.821-2.439 1.607-2.439 1.607h-2.443l.964-3.607s1.547.008 2.568.008c1.25 0 1.705.998 1.35 1.992zm5.131-1.685c.397-3.157-1.997-4.475-4.986-4.475h-7.853l-4.636 16.98h4.99l1.403-5.235 3.976.024s6.157.262 7.106-7.294zm-28.508.169h4.552l-1.875 7.247s-.467 1.616 1.038 1.741c1.188.099 2.072-1.326 2.362-2.292.38-1.268 1.86-6.697 1.86-6.697h4.69l-3.569 12.337h-4.094l.503-1.763s-2.089 2.56-5.192 2.253c-2.759-.273-2.997-2.283-2.519-4.792.235-1.232 2.244-8.035 2.244-8.035" fill="#282888"/><path d="M65.28 34.552c-.779.2-1.724.307-1.912-.405-.515-1.95 4.03-2.522 4.03-2.522.031 1.778-1.519 2.774-2.117 2.927zm6.876-3.57c.6-2.053 1.358-3.996.747-5.073-.934-1.648-2.623-1.793-5.093-1.793-2.73 0-6.1.521-7.197 4.169h4.544s.414-1.374 2.12-1.288c1.51.077 1.427 1.12.87 1.698-.976 1.011-3.67.45-6.655 1.491-2.607.909-3.52 4.355-2.953 5.73.549 1.333 1.571 1.504 2.95 1.64 2.216.218 3.914-1.023 4.705-1.751 0 .809.02 1.26.02 1.26h4.782l-.011-.452s-.426-.113-.379-.715c.035-.44.861-2.56 1.55-4.916zm-46.005-4.774c-.645 1.502-2.646 1.331-2.646 1.331l-2.33-.011.851-3.181s2.084.008 3.106.008c1.094 0 1.436.883 1.02 1.853zm5.294-2.168c.397-3.157-2.367-3.954-5.356-3.954h-7.853L13.6 37.066h4.99l1.558-5.766 2.8.023s1.155-.067 1.178 1.023c.024 1.163-.858 3.299-.8 4.72h5.126l-.012-.453s-.426-.113-.378-.715c.02-.25.294-1.042.654-2.11.217-.471.545-1.588.514-2.498-.037-1.136-.746-1.662-1.769-2.031 3.187-.751 3.984-5.22 3.984-5.22zm42.876.69h4.636v7.4l4.01-7.4h4.255l-8.577 14.964s-.797 1.255-1.785 1.919c-.811.546-1.809.521-2.113.543-1.695-.014-3.738-.02-3.738-.02l.985-3.566 1.596-.003s.73-.075 1.012-.437c.268-.344.406-.69.406-1.195 0-.758-.687-12.206-.687-12.206" fill="#282888"/><path fill="#088049" d="M93.17 21.879L87.816 40.59l10.018-9.356-4.666-9.355"/><path fill="#F0721D" d="M89.738 21.879L84.386 40.59l10.018-9.356-4.666-9.355"/><path d="M99.703 18.482a1.852 1.852 0 0 0-1.845 1.854c0 1.023.828 1.855 1.845 1.855a1.852 1.852 0 0 0 1.845-1.855 1.852 1.852 0 0 0-1.845-1.854zm0 3.893a2.035 2.035 0 0 1-2.028-2.039c0-1.123.91-2.038 2.028-2.038 1.119 0 2.028.915 2.028 2.038 0 1.124-.91 2.039-2.028 2.039z" fill="#292989"/><path fill="#292989" d="M98.72 21.097v-1.274h-.474v-.171h1.14v.17h-.476v1.275h-.19m.955 0v-1.445h.287l.34 1.023.069.214c.016-.052.042-.13.076-.231l.345-1.006h.255v1.445h-.183v-1.21l-.418 1.21h-.171l-.416-1.23v1.23h-.184"/></g></svg>